<?xml version="1.0" standalone="no"?>
<!DOCTYPE svg PUBLIC "-//W3C//DTD SVG 20010904//EN"
 "http://www.w3.org/TR/2001/REC-SVG-20010904/DTD/svg10.dtd">
<svg version="1.0" xmlns="http://www.w3.org/2000/svg"
 width="520.000000pt" height="520.000000pt" viewBox="0 0 520.000000 520.000000"
 preserveAspectRatio="xMidYMid meet">
<metadata>
I am Glynn Smith
</metadata>
<g transform="translate(0.000000,520.000000) scale(0.100000,-0.100000)"
fill="#000000" stroke="none">
<path d="M2360 5189 c-205 -19 -465 -77 -646 -144 -130 -48 -381 -170 -486
-236 -328 -208 -625 -504 -832 -829 -64 -101 -196 -372 -241 -494 -124 -338
-178 -752 -145 -1111 31 -333 108 -608 255 -912 133 -274 277 -476 499 -699
223 -222 425 -366 699 -499 186 -90 309 -136 481 -180 447 -114 865 -114 1312
0 172 44 295 90 481 180 274 133 476 277 699 499 222 223 366 425 499 699 147
304 224 579 255 912 33 359 -21 774 -145 1111 -48 130 -170 381 -236 486 -210
332 -505 627 -837 837 -105 66 -356 188 -486 236 -337 124 -763 179 -1126 144z
m438 -655 c542 -80 969 -487 1089 -1036 25 -117 25 -390 0 -508 -59 -274 -179
-493 -376 -683 -150 -145 -302 -238 -494 -302 -140 -47 -255 -65 -412 -65
-350 0 -654 123 -906 367 -197 190 -317 409 -376 683 -25 118 -25 391 0 508
151 693 786 1139 1475 1036z m-843 -2651 c29 -248 165 -439 380 -538 95 -44
163 -59 270 -59 107 0 175 15 270 59 215 99 351 290 380 538 l7 57 326 0 325
0 -6 -92 c-12 -178 -57 -339 -143 -508 -324 -636 -1106 -891 -1744 -570 -412
208 -687 620 -717 1078 l-6 92 325 0 326 0 7 -57z"/>
<path d="M2540 3894 c-92 -15 -144 -30 -205 -59 -263 -121 -417 -401 -375
-680 38 -253 205 -453 444 -532 70 -23 98 -27 201 -27 103 0 131 4 201 27 331
110 515 449 428 791 -56 218 -254 411 -474 464 -53 13 -184 22 -220 16z"/>
</g>
</svg>
