<svg xmlns="http://www.w3.org/2000/svg" viewBox="0 0 24 42"><path fill="#ffffff" d="M5.2 9c1.4 0 2.6-1 2.6-2.5C7.8 5 6.6 4 5.2 4S2.6 5 2.6 6.4C2.6 8 3.8 9 5.2 9zm0-3.8c.7 0 1.3.6 1.3 1.3S6 7.8 5.2 7.8 4 7.2 4 6.5 4.4 5.2 5 5.2zm0 5.2C4.5 10.4 4 9.8 4 9H2.5c0 1.5 1.2 2.7 2.6 2.7S7.8 10.5 7.8 9H6.5c0 .8-.6 1.4-1.3 1.4zM17.2 31.4c-.7 0-1.3-.6-1.3-1.3h-1.4c0 1.5 1.2 2.7 2.6 2.7 1.4 0 2.6-1.2 2.6-2.6h-1.3c0 .8-.6 1.4-1.3 1.4zm0-1.3c1.4 0 2.6-1 2.6-2.5S18.6 25 17.2 25c-1.4 0-2.6 1-2.6 2.5s1.2 2.6 2.6 2.6zm0-3.8c.7 0 1.3.6 1.3 1.3 0 .7-.6 1.3-1.3 1.3s-1.3-.6-1.3-1.3c0-.7.5-1.3 1.2-1.3z" opacity="0.01"/></svg>