<svg xmlns="http://www.w3.org/2000/svg" viewBox="0 0 1200 180"><linearGradient id="a" gradientUnits="userSpaceOnUse" x1="600" y1="2.1" x2="600" y2="177.9"><stop offset=".2" stop-color="#F40"/><stop offset=".3" stop-color="#FA4000"/><stop offset=".5" stop-color="#ED3400"/><stop offset=".8" stop-color="#D62000"/><stop offset="1" stop-color="#B70500"/><stop offset="1" stop-color="#B40200"/></linearGradient><path fill="url(#a)" d="M149.7 71.7c-1.4-5.2-3.5-10-6-14.7l9-24.5c-1.4-1.7-2.8-3.3-4.3-4.8s-3-3-4.8-4.3l-24.6 9c-4.6-2.6-9.5-4.7-14.7-6l-10.8-24c-2-.2-4.3-.3-6.5-.3s-4.4.2-6.5.4l-11 24c-5 1.3-10 3.4-14.6 6l-23.6-8c-1.7 1.3-3.3 2.7-4.8 4.2s-3 3-4.3 4.8l8 23.6c-2.5 4.6-4.6 9.5-6 14.7L.3 82.5C0 84.7 0 86.8 0 89s0 4.4.3 6.5l24 11c1.3 5 3.4 10 6 14.6l-9 24.6c1.3 1.7 2.7 3.3 4.2 4.8s3 3 4.8 4.3l24.5-9c2.2 1.2 4.6 2.3 7 3.3l-.4-4.3-2-6c0-.3-.2-.5-.3-.7-1.3-2.5-3.5-5-6-8l-4-5c-1-1-2.2-2.3-3.2-3.6l-3-4v-.4h-.2c-2.6-4.2-4.7-8.6-6-13.4-1.6-4.8-2.3-10-2.3-15.2 0-14.6 6-27.8 15.5-37.3 9.5-9.4 22.8-15.4 37.3-15.4 14.6 0 28 6 37.4 15.5C134 60.7 140 74 140 88.5v1.4c-.2 5-1 9.5-2.3 14-1.4 4.6-3.5 9-6 13l-.2.3-.3.5-3 4-3 3.7c-.6.5-2.3 2.5-4.2 4.8-2.4 3-4.6 5.5-6 8-1 1.8-1.8 4-2.3 6.3l-.4 4.8c2.4-1 4.7-2 7-3.3l24.5 9c1.7-1.3 3.3-2.7 4.8-4.2s3-3 4.3-4.8l-9.2-24.5c2.6-4.6 4.7-9.5 6-14.7l24-11c.2-2 .3-4.2.3-6.4 0-2 0-4.3-.2-6.4l-24-11zm-34.5 53.6l4.3-5c1-1 2-2 3-3.3l2.5-3.6c2.3-3.6 4-7.5 5.4-11.6 1.3-4.2 2-8.6 2-13 0-12.6-5.2-24-13.4-32.2-8.2-8.2-19.6-13.3-32-13.3-12.6 0-24 5-32.2 13.3-8.2 8-13.3 19.4-13.3 32 0 4.5.7 9 2 13 1.2 4.2 3 8 5.3 11.6l2.6 3.6 3 3.3c.2.4 2 2.5 4.2 5 2.4 3 5 6 6.8 9.2C67 137 68 140 68.6 143v.3l36 6.3.5-6.6c.8-3 1.7-6 3.3-8.8 2-3 4.5-6 7-9zm-11.6 6.4c-1 1.8-2 3.8-2.6 6H73c-.7-2.2-1.6-4.2-2.6-6-2-3.8-4.8-7-7.3-10-1.3-1.7-2.8-3.4-4.3-5v-.2l-.2-.2c-1-1-1.8-2-2.5-3l-2.3-3c-2.2-3.3-3.8-6.7-4.8-10.3-1.2-3.7-1.8-7.6-1.8-11.5 0-10.7 4.2-20.7 11.7-28.3 7.4-7.5 17.5-11.7 28-11.7 10.8 0 20.8 4.2 28.3 11.7 7.5 7.5 11.7 17.6 11.7 28.3 0 4-.6 7.8-1.7 11.5-1 3.6-2.6 7-4.7 10v.3l-2.4 3.2-2.5 3h-.2L111 122c-2.5 2.8-5.2 6-7.4 10zm140.8-94l-7.6-8h-46.2V148H217v-21l18.4 21h18.4l18.4-21v21h26.4V29.6h-46.2l-8 8zM69.4 152l34.4 6 .4-4.8-35-6.2.3 5zm1 8.4l1.8.3 4.4.8 4.4.8 4.4.8 4.4 1 4.4.7c1 .2 1.5 1 1.4 2 0 .7-1 1.3-1.7 1.3h-.4l-4.4-.8-4.4-.8-4.4-.8-4.4-.8-4.4-.8-1-.2.5 5.4 8.6 8.6h14.8l8.5-8.6.6-8-33.7-6 .3 5.2zm1129.6-99V29.5h-71v118.6h71v-31.7h-21V106h10.4V71.8H1179V61.3h21zm-116 0L1060 29.5h-21v118.6h26.3v-31.7l23.7 31.7h21V29.6H1084v31.7zM317 148h30.4v-31.7H358v31.7H388V29.6h-71v118.6zM347.5 61H358v23.7h-10.6V61zm646.8 87.2h26.4V29.6h-26.4v118.6zm-48.7-97.5H935v-21h-30.5V148H935v-21h10.5v21h30V29.6h-30v21zm-121.8 97.5h62v-32h-10.4V61h10.5V29.6h-62v118.6zm-89.7 0h30.3v-31.7h10.5v31.7H805V29.6h-71v118.6zM764.3 61h10.5v23.7h-10.5V61zm-316-10.3v-21H407V148h41.6v-21l21 21h29.8v-32l-27.5-27.6L499.2 61V29.6h-29.7l-21 21zm213-13l-7.6-8h-46.2V148H634v-21l18.3 21h18.4l18.4-21v21h26.5V29.6h-46.2l-8 8zM517.8 148h71v-31.7h-21V106h10.5V71.8h-10.5V61.3h21V29.6h-71v118.6z"/></svg>
